<?xml version="1.0" encoding="utf-8"?>
<!-- Generator: Adobe Illustrator 19.0.0, SVG Export Plug-In . SVG Version: 6.00 Build 0)  -->
<svg version="1.1" id="图层_1" xmlns="http://www.w3.org/2000/svg" xmlns:xlink="http://www.w3.org/1999/xlink" x="0px" y="0px"
	 viewBox="0 0 40 40" style="enable-background:new 0 0 40 40;" xml:space="preserve">
<style type="text/css">
	.st0{fill:#DDDDDD;}
	.st1{fill:#FFFFFF;}
</style>
<g id="XMLID_27_">
	<path id="XMLID_2025_" class="st0" d="M38,20.1c0,9.9-8.1,18-18,18s-18-8-18-18s8.1-18,18-18c0.7,0,1.3,0,2,0.1
		C31,3.2,38,10.8,38,20.1z"/>
	<g id="XMLID_2191_">
		<path id="XMLID_2193_" class="st1" d="M29.2,23.5C28.7,21,27,19.4,27,19.4c0.3-2.2-0.7-2.6-0.7-2.6c-0.2-6.9-6.2-6.8-6.3-6.8
			c-0.1,0-6.1-0.1-6.3,6.8c0,0-0.9,0.4-0.7,2.6c0,0-1.8,1.6-2.2,4.1c0,0-0.2,4.2,2,0.5c0,0,0.5,1.4,1.4,2.6c0,0-1.7,0.6-1.5,2
			c0,0-0.1,1.6,3.6,1.5c0,0,2.5-0.2,3.3-1.3h0.7c0.8,1.1,3.3,1.3,3.3,1.3c3.6,0.1,3.6-1.5,3.6-1.5c0.1-1.5-1.5-2-1.5-2
			c0.9-1.2,1.4-2.6,1.4-2.6C29.4,27.6,29.2,23.5,29.2,23.5L29.2,23.5z M29.2,23.5"/>
	</g>
</g>
</svg>
