<?xml version="1.0" encoding="utf-8"?>
<!-- Generator: Adobe Illustrator 19.0.0, SVG Export Plug-In . SVG Version: 6.00 Build 0)  -->
<svg version="1.1" id="图层_1" xmlns="http://www.w3.org/2000/svg" xmlns:xlink="http://www.w3.org/1999/xlink" x="0px" y="0px"
	 viewBox="0 0 40 40" style="enable-background:new 0 0 40 40;" xml:space="preserve">
<style type="text/css">
	.st0{fill:#DDDDDD;}
	.st1{fill:#FFFFFF;}
</style>
<g id="XMLID_28_">
	<path id="XMLID_32_" class="st0" d="M38,20.1c0,9.9-8.1,18-18,18s-18-8-18-18s8.1-18,18-18c0.7,0,1.3,0,2,0.1
		C31,3.2,38,10.8,38,20.1z"/>
	<path id="XMLID_29_" class="st1" d="M29,17.9c-0.2-0.4-0.5-0.8-1-0.9l-4.4-1.1l-2.4-3.9c-0.3-0.4-0.7-0.6-1.2-0.6
		c-0.5,0-0.9,0.2-1.2,0.6l-2.4,3.9L12,17c-0.5,0.1-0.8,0.5-1,0.9c-0.2,0.4-0.1,0.9,0.2,1.3l2.9,3.6l-0.3,4.5c0,0.5,0.2,0.9,0.6,1.2
		c0.2,0.2,0.5,0.3,0.8,0.3c0.2,0,0.3,0,0.5-0.1L20,27l4.2,1.6c0.2,0.1,0.3,0.1,0.5,0.1h0c0.8,0,1.4-0.6,1.4-1.4c0-0.1,0-0.2,0-0.2
		l-0.3-4.3l2.9-3.6C29,18.9,29.1,18.4,29,17.9z M15.5,24.1l5.9-5.1c0,0-2.1-0.9-6.2-1.3c0,0,4.9-0.7,9.7,0.4l-6.1,4.6
		c0,0,0.7,0.5,6.6,1.1C25.3,23.9,20.9,25.4,15.5,24.1z"/>
</g>
<g id="XMLID_2451_">
	<path id="XMLID_1296_" class="st0" d="M393.2,2076.7c0,9.9-8.1,18-18,18s-18-8-18-18s8.1-18,18-18c0.7,0,1.3,0,2,0.1
		C386.2,2059.8,393.2,2067.4,393.2,2076.7z"/>
	<path id="XMLID_1957_" class="st1" d="M384.9,2074.4c-0.2-0.4-0.5-0.8-1-0.9l-4.4-1.1l-2.4-3.9c-0.3-0.4-0.7-0.6-1.2-0.6
		c-0.5,0-0.9,0.2-1.2,0.6l-2.4,3.9l-4.4,1.1c-0.5,0.1-0.8,0.5-1,0.9c-0.2,0.4-0.1,0.9,0.2,1.3l2.9,3.6l-0.3,4.5
		c0,0.5,0.2,0.9,0.6,1.2c0.2,0.2,0.5,0.3,0.8,0.3c0.2,0,0.3,0,0.5-0.1l4.2-1.6l4.2,1.6c0.2,0.1,0.3,0.1,0.5,0.1h0
		c0.8,0,1.4-0.6,1.4-1.4c0-0.1,0-0.2,0-0.2l-0.3-4.3l2.9-3.6C384.9,2075.3,385,2074.8,384.9,2074.4z M371.4,2080.6l5.9-5.1
		c0,0-2.1-0.9-6.2-1.3c0,0,4.9-0.7,9.7,0.4l-6.1,4.6c0,0,0.7,0.5,6.6,1.1C381.2,2080.3,376.8,2081.9,371.4,2080.6z"/>
</g>
</svg>
