<?xml version="1.0" encoding="utf-8"?>
<!-- Generator: Adobe Illustrator 19.0.0, SVG Export Plug-In . SVG Version: 6.00 Build 0)  -->
<svg version="1.1" id="图层_1" xmlns="http://www.w3.org/2000/svg" xmlns:xlink="http://www.w3.org/1999/xlink" x="0px" y="0px"
	 viewBox="0 0 40 40" style="enable-background:new 0 0 40 40;" xml:space="preserve">
<style type="text/css">
	.st0{fill:#DDDDDD;}
	.st1{fill:#FFFFFF;}
</style>
<path id="XMLID_2050_" class="st0" d="M38,20C38,30,30,38,20,38S2,30,2,20S10.1,2,20,2c0.7,0,1.3,0,2,0.1C31,3.1,38,10.8,38,20z"/>
<g id="XMLID_2041_">
	<path id="XMLID_2046_" class="st1" d="M23.9,16.5c0.3,0,0.5,0,0.8,0c-0.7-3.1-4-5.5-7.9-5.5C12.5,11,9,14,9,17.7
		c0,2.1,1.2,3.9,3.1,5.3l-0.8,2.4l2.7-1.4c1,0.2,1.8,0.4,2.7,0.4c0.2,0,0.5,0,0.7,0c-0.2-0.5-0.2-1.1-0.2-1.6
		C17.3,19.2,20.2,16.5,23.9,16.5z M19.7,14.4c0.6,0,1,0.4,1,1c0,0.6-0.4,1-1,1c-0.6,0-1.2-0.4-1.2-1C18.6,14.7,19.1,14.4,19.7,14.4z
		 M14.3,16.3c-0.6,0-1.2-0.4-1.2-1c0-0.6,0.6-1,1.2-1c0.6,0,1,0.4,1,1C15.2,15.9,14.9,16.3,14.3,16.3z"/>
	<path id="XMLID_2042_" class="st1" d="M31.1,22.6c0-3.1-3.1-5.7-6.6-5.7c-3.7,0-6.6,2.5-6.6,5.7c0,3.1,2.9,5.7,6.6,5.7
		c0.8,0,1.6-0.2,2.3-0.4l2.1,1.2l-0.6-2C29.9,25.9,31.1,24.3,31.1,22.6z M22.3,21.6c-0.4,0-0.8-0.4-0.8-0.8c0-0.4,0.4-0.8,0.8-0.8
		c0.6,0,1,0.4,1,0.8C23.2,21.2,22.9,21.6,22.3,21.6z M26.6,21.6c-0.4,0-0.8-0.4-0.8-0.8c0-0.4,0.4-0.8,0.8-0.8c0.6,0,1,0.4,1,0.8
		C27.5,21.2,27.2,21.6,26.6,21.6z"/>
</g>
</svg>
