<?xml version="1.0" encoding="utf-8"?>
<!-- Generator: Adobe Illustrator 19.0.0, SVG Export Plug-In . SVG Version: 6.00 Build 0)  -->
<svg version="1.1" id="图层_1" xmlns="http://www.w3.org/2000/svg" xmlns:xlink="http://www.w3.org/1999/xlink" x="0px" y="0px"
	 viewBox="0 0 40 40" style="enable-background:new 0 0 40 40;" xml:space="preserve">
<style type="text/css">
	.st0{fill:#DDDDDD;}
	.st1{fill:#FFFFFF;}
</style>
<g id="XMLID_1323_">
	<path id="XMLID_2033_" class="st0" d="M38,20.1c0,9.9-8.1,18-18,18s-18-8-18-18s8.1-18,18-18c0.7,0,1.3,0,2,0.1
		C31,3.2,38,10.8,38,20.1z"/>
	<path id="XMLID_2196_" class="st1" d="M24.9,19.9c-0.2,0-0.4-0.1-0.5-0.2c-0.1-0.1-0.1-0.2,0-0.3l0.1-0.1c0,0,0,0,0-0.1
		c0,0,0-0.1,0.1-0.2c0-0.1,0.1-0.2,0.1-0.3s0-0.2,0.1-0.4c0-0.1,0-0.3,0-0.4s-0.1-0.3-0.1-0.4c-0.1-0.2-0.2-0.3-0.3-0.4
		c-0.2-0.2-0.5-0.4-0.9-0.4s-0.7-0.1-1,0s-0.7,0.1-1,0.2c-0.3,0.1-0.6,0.2-0.8,0.2l-0.3,0.1c-0.2,0-0.3,0.1-0.4,0.1
		c-0.1,0-0.2,0-0.2,0c-0.1,0-0.1,0-0.1-0.1c0,0,0-0.1,0-0.2c0-0.1,0-0.2,0-0.2s0-0.2,0.1-0.3c0-0.1,0.1-0.2,0.1-0.3
		c0-0.2,0-0.4,0-0.5c0-0.2-0.1-0.3-0.2-0.5c-0.1-0.2-0.2-0.4-0.3-0.5c-0.1-0.1-0.3-0.2-0.6-0.3c-0.2-0.1-0.5-0.1-0.9-0.1
		c-0.4,0-0.8,0.1-1.2,0.3c-0.5,0.2-1.1,0.5-1.7,0.8s-1,0.7-1.5,1.1s-0.8,0.8-1.1,1.2c-0.3,0.4-0.6,0.7-0.8,0.9L11.3,19
		c-0.5,0.7-0.9,1.3-1.1,2c-0.2,0.7-0.4,1.2-0.3,1.5V23c0.1,0.7,0.3,1.4,0.7,2c0.4,0.6,0.8,1.1,1.3,1.4s1.1,0.7,1.8,0.9
		s1.3,0.4,2,0.6c0.6,0.1,1.3,0.2,2,0.2c1.1,0.1,2.3,0,3.6-0.3c1.2-0.3,2.4-0.7,3.4-1.4s1.8-1.5,2.2-2.4c0.3-0.5,0.4-1.1,0.4-1.5
		c0-0.5-0.1-0.9-0.2-1.2c-0.2-0.3-0.4-0.6-0.7-0.8c-0.3-0.2-0.5-0.4-0.8-0.5C25.3,20,25.1,19.9,24.9,19.9L24.9,19.9z M17.8,27.1
		c-1.7,0.1-3.1-0.2-4.3-1s-1.8-1.7-1.8-2.8c0-1.1,0.6-2.1,1.7-2.9s2.6-1.2,4.3-1.3c1.7-0.1,3.1,0.2,4.3,0.8s1.7,1.5,1.7,2.6
		c0,1.1-0.6,2.1-1.8,3C20.9,26.6,19.5,27.1,17.8,27.1L17.8,27.1z M17.1,20.7c-0.5,0-0.9,0.2-1.2,0.3c-0.4,0.2-0.6,0.3-0.8,0.6
		c-0.2,0.2-0.4,0.4-0.5,0.7c-0.1,0.2-0.2,0.5-0.3,0.7s-0.1,0.4-0.1,0.6s0,0.3,0,0.5l0,0.2v0.1c0,0,0,0.1,0,0.3
		c0,0.1,0.1,0.3,0.1,0.4c0.1,0.1,0.1,0.2,0.3,0.4c0.1,0.1,0.3,0.3,0.4,0.3c1,0.5,2,0.6,2.9,0.5c0.9-0.2,1.6-0.6,2.1-1.3
		c0.2-0.3,0.4-0.6,0.4-1c0.1-0.4,0.1-0.8,0-1.2s-0.3-0.8-0.5-1.1s-0.6-0.6-1.1-0.8S17.8,20.6,17.1,20.7L17.1,20.7z M16.3,25.1
		c-0.1,0-0.2,0-0.3,0c-0.1,0-0.2,0-0.2,0c-0.1,0-0.1-0.1-0.2-0.1c-0.1,0-0.1-0.1-0.2-0.1c0-0.1-0.1-0.1-0.1-0.2
		c0-0.1-0.1-0.1-0.1-0.2s0-0.1,0-0.2c0-0.2,0-0.3,0.1-0.5c0.1-0.2,0.2-0.3,0.4-0.4c0.2-0.1,0.3-0.2,0.5-0.2c0.1,0,0.3,0,0.4,0
		c0.1,0,0.2,0.1,0.3,0.1c0.1,0.1,0.2,0.1,0.2,0.2c0.1,0.1,0.1,0.2,0.2,0.2s0,0.2,0,0.3c0,0.2-0.1,0.3-0.2,0.5s-0.2,0.3-0.4,0.4
		C16.7,25,16.5,25.1,16.3,25.1L16.3,25.1z M18.3,23.4c-0.1,0.1-0.2,0.1-0.3,0.1c-0.1,0-0.2-0.1-0.2-0.2l0-0.1c0,0,0-0.1,0-0.1v-0.1
		c0,0,0-0.1,0-0.1l0-0.1c0,0,0-0.1,0.1-0.1l0.1-0.1c0.1-0.1,0.2-0.1,0.4-0.1c0.1,0,0.2,0.1,0.2,0.2c0,0.1,0.1,0.1,0.1,0.2
		c0,0.1,0,0.2-0.1,0.2C18.4,23.3,18.3,23.4,18.3,23.4L18.3,23.4z M26.5,18.5c0.1,0,0.2,0,0.3-0.1c0.1,0,0.1-0.1,0.2-0.2
		s0.1-0.1,0.1-0.2c0,0,0,0,0-0.1c0.2-1.8-0.4-2.8-1.9-3c-0.4-0.1-0.8-0.1-1.2,0c-0.1,0-0.2,0-0.3,0.1c-0.1,0.1-0.1,0.1-0.2,0.2
		s-0.1,0.2-0.1,0.3c0,0.2,0.1,0.3,0.2,0.4c0.1,0.1,0.2,0.2,0.4,0.2c1.2-0.3,1.9,0.1,2,1.2c0,0.3,0,0.5,0,0.7c0,0.2,0.1,0.3,0.2,0.4
		C26.3,18.5,26.4,18.5,26.5,18.5L26.5,18.5z M26.2,12c-0.7-0.2-1.6-0.1-2.7,0.1c0,0,0,0,0,0l0,0l0,0c-0.2,0-0.3,0.1-0.4,0.3
		c-0.1,0.1-0.2,0.3-0.2,0.5c0,0.2,0.1,0.4,0.2,0.6c0.2,0.2,0.3,0.2,0.6,0.2h0.1c0,0,0.1,0,0.1,0c0.1,0,0.1,0,0.2,0
		c0.1,0,0.1,0,0.2,0s0.1,0,0.2-0.1s0.2,0,0.3,0c0.2,0,0.3,0,0.6,0c0.2,0,0.5,0.1,0.7,0.2c0.3,0.1,0.5,0.2,0.8,0.3s0.5,0.3,0.8,0.6
		c0.3,0.2,0.5,0.5,0.7,0.9c0.4,0.9,0.5,1.8,0.2,2.7c0,0,0,0,0,0c0,0,0,0.1,0,0.1c0,0.1,0,0.1,0,0.2s0,0.1,0,0.2c0,0.1,0,0.2,0,0.2
		c0,0.1,0,0.3,0.1,0.3c0.1,0.1,0.2,0.2,0.3,0.2c0.1,0,0.3,0.1,0.4,0.1c0.4,0,0.7-0.3,0.8-0.8c0.2-0.6,0.3-1.2,0.3-1.7
		c0-0.6,0-1-0.1-1.5c-0.1-0.4-0.3-0.8-0.5-1.2c-0.2-0.4-0.4-0.7-0.7-0.9c-0.3-0.3-0.6-0.5-0.9-0.7c-0.3-0.2-0.6-0.4-0.9-0.5
		S26.5,12,26.2,12L26.2,12z"/>
</g>
</svg>
